<?xml version="1.0" encoding="UTF-8"?>
<!-- Elite — Service category. Cyan->crimson gradient ring + crown. Glow is a blurred light copy of the same gradient (cyan side glows cyan, crimson side glows crimson), matching the family rule that glow tracks the ring. -->
<svg xmlns="http://www.w3.org/2000/svg" viewBox="0 0 64 64" width="64" height="64">
  <defs>
    <radialGradient id="fieldGrad" cx="50%" cy="38%" r="58%">
      <stop offset="0%" stop-color="#1a1d24"/>
      <stop offset="100%" stop-color="#050608"/>
    </radialGradient>
    <linearGradient id="metalGrad" x1="10" y1="10" x2="54" y2="54" gradientUnits="userSpaceOnUse">
      <stop offset="0%" stop-color="#4dc9e6"/>
      <stop offset="50%" stop-color="#8a6a82"/>
      <stop offset="100%" stop-color="#9a2e48"/>
    </linearGradient>
    <linearGradient id="metalGradGlow" x1="10" y1="10" x2="54" y2="54" gradientUnits="userSpaceOnUse">
      <stop offset="0%" stop-color="#9fe8f7"/>
      <stop offset="50%" stop-color="#c89db0"/>
      <stop offset="100%" stop-color="#e06a86"/>
    </linearGradient>
    <radialGradient id="topHighlight" cx="50%" cy="20%" r="40%">
      <stop offset="0%" stop-color="#ffffff" stop-opacity="0.32"/>
      <stop offset="100%" stop-color="#ffffff" stop-opacity="0"/>
    </radialGradient>
    <clipPath id="ringClip">
      <path d="M32 2 A30 30 0 1 1 31.99 2 Z M32 8 A24 24 0 1 0 32.01 8 Z" fill-rule="evenodd"/>
    </clipPath>
    <filter id="pinShadow" x="-20%" y="-20%" width="140%" height="140%">
      <feGaussianBlur in="SourceAlpha" stdDeviation="1.2"/>
      <feOffset dx="0" dy="0.8" result="offsetBlur"/>
      <feFlood flood-color="#000000" flood-opacity="0.45"/>
      <feComposite in2="offsetBlur" operator="in"/>
      <feMerge>
        <feMergeNode/>
        <feMergeNode in="SourceGraphic"/>
      </feMerge>
    </filter>
    <filter id="softBlur" x="-50%" y="-50%" width="200%" height="200%">
      <feGaussianBlur stdDeviation="2.4"/>
    </filter>
    <linearGradient id="symbolMetalGrad" x1="20" y1="0" x2="44" y2="0" gradientUnits="userSpaceOnUse">
      <stop offset="0%" stop-color="#4dc9e6"/>
      <stop offset="50%" stop-color="#9a8190"/>
      <stop offset="100%" stop-color="#9a2e48"/>
    </linearGradient>
  </defs>

  <g filter="url(#pinShadow)">
    <circle cx="32" cy="32" r="24" fill="url(#fieldGrad)"/>
    <circle cx="32" cy="32" r="27" fill="none" stroke="url(#metalGradGlow)" stroke-width="6" filter="url(#softBlur)"/>
    <circle cx="32" cy="32" r="27" fill="none" stroke="url(#metalGrad)" stroke-width="6"/>
    <g clip-path="url(#ringClip)">
      <rect width="64" height="64" fill="url(#topHighlight)"/>
    </g>
    <!-- Crown -->
    <g fill="url(#symbolMetalGrad)" stroke="url(#symbolMetalGrad)" stroke-width="0.6" stroke-linejoin="round">
      <path d="M 21 41 L 20 23 L 27 31.5 L 32 20 L 37 31.5 L 44 23 L 43 41 Z"/>
      <circle cx="20" cy="23" r="2"/>
      <circle cx="32" cy="20" r="2.3"/>
      <circle cx="44" cy="23" r="2"/>
    </g>
  </g>
</svg>
